# xmcd
#
# Track frame offsets:
#	150
#	11982
#	28395
#	47630
#	62195
#	76577
#	98285
#	117067
#	134672
#	149582
#	164782
#	183157
#	201125
#	215840
#	230055
#	244315
#	259225
#	273410
#	288775
#
# Disc length: 4031 seconds
#
# Revision: 0
# Processed by: cddbd v1.5.2PL0 Copyright (c) Steve Scherf et al.
# Submitted via: EasyCDDAExtractor 7.1.2.1
#
DISCID=240fbd13
DTITLE=Various Artist - TM Century - Gold Disc 1000
DYEAR=1900
DGENRE=Country
TTITLE0=Hank Williams, Jr. - Dixie On My Mind
TTITLE1=Barbara Mandrell - I Was Country When Country Wasn't Cool
TTITLE2=Ronnie Milsap - Lost In The Fifties (In The Still Of The Night)
TTITLE3=Forester Sisters - I Fell In Love Again Last Night
TTITLE4=Lee Greenwood - God Bless The USA
TTITLE5=Willie Nelson and Merle HAggard - Poncho And Lefty
TTITLE6=Kenny Rogers and Dolly Parton - Islands In The Stream
TTITLE7=Alabama - Mountain Music
TTITLE8=George Jones - He Stopped Loving Her Today
TTITLE9=The Judds - Have Mercy
TTITLE10=Johnny Lee - Cherokee Fiddle
TTITLE11=Oak Ridge Boys - I Guess It Never Hurts To Hurt Sometimes
TTITLE12=Anne Murray - Could I Have This Dance
TTITLE13=Ricky Skaggs - Highway 48 Blues
TTITLE14=Eddie Rabbitt - Drivin' My Life Away
TTITLE15=Rosanne Cash - I Don't Know Why You Don't Want Me
TTITLE16=Exile - Woke Up In Love
TTITLE17=John Conlee - Rose Colored Glasses
TTITLE18=Charly McClain and Mickey Gilley - Paradise Tonight
EXTD=
EXTT0=
EXTT1=
EXTT2=
EXTT3=
EXTT4=
EXTT5=
EXTT6=
EXTT7=
EXTT8=
EXTT9=
EXTT10=
EXTT11=
EXTT12=
EXTT13=
EXTT14=
EXTT15=
EXTT16=
EXTT17=
EXTT18=
PLAYORDER=
